<?xml version="1.0" standalone="no"?>
<!DOCTYPE svg PUBLIC "-//W3C//DTD SVG 1.1//EN" "http://www.w3.org/Graphics/SVG/1.1/DTD/svg11.dtd">
<svg xmlns="http://www.w3.org/2000/svg">
<defs >
<font id="GoogleSans" horiz-adv-x="625" ><font-face
    font-family="Google Sans 18pt"
    units-per-em="1000"
    panose-1="0 0 0 0 0 0 0 0 0 0"
    ascent="966"
    descent="-286"
    alphabetic="0" />
<glyph unicode=" " horiz-adv-x="232" />
<glyph unicode="!" horiz-adv-x="238" d="M86 211L77 473V716H161V473L151 211H86ZM119 -6Q92 -6 74 12T55 58Q55 84 73 102T119 121Q146 121 164 103T183 58Q183 31 165 13T119 -6Z" />
<glyph unicode="&quot;" horiz-adv-x="323" d="M194 495V716H271V495H194ZM51 495V716H128V495H51Z" />
<glyph unicode="#" horiz-adv-x="641" d="M123 0L225 684H300L198 0H123ZM72 487H610L599 417H61L72 487ZM339 0L441 684H516L414 0H339ZM42 276H580L569 206H30L42 276Z" />
<glyph unicode="$" horiz-adv-x="542" d="M269 -14Q234 -14 197 -3T127 30T68 87T30 168L103 198Q114 161 138 130T196 81T268 62Q309 62 342 75T395 115T415 178Q415 209 398 230T352 269T284 301L243 317Q200 334 166 354T107 398T69 453T56 519Q56 566 81 607T154
674T268 700Q334 700 378 677T447 622T481 562L407 531Q401 551 385 572T340 607T269 622Q214 622 176 593T138 519Q138 490 154 468T200 429T270 395L303 382Q354 362 398 336T469 273T496 180Q496 129 477 93T424 32T351 -3T269 -14ZM241 -100V784H311V-100H241Z"
/>
<glyph unicode="%" horiz-adv-x="828" d="M210 358Q163 358 125 381T63 444T40 529Q40 575 63 614T124 676T210 700Q258 700 296 677T357 614T380 529Q380 483 358 444T297 382T210 358ZM210 428Q251 428 278 457T305 529Q305 573 278 601T210 630Q170 630 143
602T116 529Q116 486 143 457T210 428ZM618 -16Q571 -16 533 7T471 70T448 155Q448 201 471 240T532 302T618 326Q666 326 704 303T765 240T788 155Q788 109 766 70T705 8T618 -16ZM618 54Q659 54 686 83T713 155Q713 199 686 227T618 256Q578 256 551 228T524
155Q524 112 551 83T618 54ZM220 -9L162 30L623 719L680 679L220 -9Z" />
<glyph unicode="&amp;" horiz-adv-x="628" d="M520 -16L168 448Q145 479 131 508T116 569Q116 614 139 651T201 710T286 732Q351 732 390 695T445 611L372 572Q366 590 356 608T329 638T286 651Q250 651 226 629T201 569Q201 550 208 532T226 500L584 32L520 -16ZM293
62Q338 62 374 81T439 133T490 209T531 299L600 258Q579 197 551 147T485 60T403 4T302 -16Q226 -16 168 15T77 104T44 235Q44 284 64 328T120 409T204 465L253 401Q215 390 185 365T138 306T121 236Q121 186 142 147T202 85T293 62Z" />
<glyph unicode="&apos;" horiz-adv-x="180" d="M51 495V716H128V495H51Z" />
<glyph unicode="(" horiz-adv-x="323" d="M241 -136Q211 -101 180 -53T122 53T80 179T63 322Q63 397 79 464T122 590T179 697T241 780L303 736Q261 686 226 620T169 478T147 322Q147 242 168 166T225 24T303 -92L241 -136Z" />
<glyph unicode=")" horiz-adv-x="323" d="M82 -136L20 -92Q62 -42 97 24T154 166T176 322Q176 402 155 478T98 620T20 736L82 780Q122 734 163 665T232 509T260 322Q260 247 244 180T201 54T144 -53T82 -136Z" />
<glyph unicode="*" horiz-adv-x="427" d="M135 376L77 418L153 521L151 529L39 567L62 634L172 595L178 597V716H249V597L254 595L365 634L388 567L276 529L273 521L350 418L292 376L217 479H210L135 376Z" />
<glyph unicode="+" horiz-adv-x="558" d="M244 54V488H314V54H244ZM62 236V306H496V236H62Z" />
<glyph unicode="," horiz-adv-x="238" d="M92 -110L51 -83L105 0Q89 3 74 18T58 58Q58 84 76 102T122 121Q136 121 147 116T167 103T181 83T186 58Q186 46 182 35T172 12T158 -10L92 -110Z" />
<glyph unicode="-" horiz-adv-x="441" d="M62 275V345H379V275H62Z" />
<glyph unicode="." horiz-adv-x="238" d="M119 -6Q92 -6 74 12T55 58Q55 84 73 102T119 121Q146 121 164 103T183 58Q183 31 165 13T119 -6Z" />
<glyph unicode="/" horiz-adv-x="300" d="M2 0L220 716H298L80 0H2Z" />
<glyph unicode="0" horiz-adv-x="645" d="M322 -16Q259 -16 209 11T123 88T68 202T49 342Q49 417 68 482T123 596T209 672T322 700Q385 700 435 673T522 596T577 482T596 342Q596 267 577 202T522 88T436 12T322 -16ZM322 65Q380 65 422 102T486 202T509 342Q509
420 487 483T422 582T322 619Q264 619 223 583T159 483T136 342Q136 265 158 202T222 102T322 65Z" />
<glyph unicode="1" horiz-adv-x="380" d="M209 0V565L89 479L45 544L240 684H294V0H209Z" />
<glyph unicode="2" horiz-adv-x="526" d="M45 0V85Q48 88 69 109T121 161T186 227T249 292T296 342Q327 376 346 400T374 448T383 503Q383 532 368 558T325 602T253 619Q213 619 186 602T143 562T123 519L46 550Q52 571 67 596T108 645T170 684T255 700Q320 700
368 673T442 601T469 504Q469 459 452 419T410 345T359 287Q346 274 323 251T274 202T223 150T180 106T154 81V81H477V0H45Z" />
<glyph unicode="3" horiz-adv-x="535" d="M261 -16Q221 -16 176 1T94 55T39 155L116 187Q133 129 171 97T261 65Q300 65 332 81T384 127T404 193Q404 229 384 257T331 302T258 319H199V398H252Q288 398 317 412T364 452T381 513Q381 562 345 590T256 619Q218 619
193 605T154 569T132 526L54 559Q64 589 89 621T155 677T256 700Q317 700 364 676T439 610T467 513Q467 475 454 446T419 397T373 365V361Q405 348 431 325T474 269T490 194Q490 133 459 86T376 11T261 -16Z" />
<glyph unicode="4" horiz-adv-x="593" d="M45 147V211L365 684H457V0H373V560H369L146 227H545V147H45Z" />
<glyph unicode="5" horiz-adv-x="563" d="M274 -16Q229 -16 182 3T98 64T45 169L120 199Q136 140 175 103T272 65Q339 65 381 106T424 213Q424 278 383 320T274 363Q238 363 206 347T154 301L68 339L112 684H466V603H182L155 396L159 395Q183 415 214 427T289
440Q348 440 398 411T478 331T509 214Q509 150 479 98T395 15T274 -16Z" />
<glyph unicode="6" horiz-adv-x="557" d="M279 -16Q226 -16 183 4T109 56Q78 88 62 129T45 213Q45 273 71 326T132 431Q162 476 192 521T251 610T311 700L379 653Q358 623 337 593T293 533T250 472T207 412L209 410Q226 421 247 427T297 434Q336 434 374 418T443
372T493 302T512 213Q512 153 480 101T396 16T279 -16ZM279 65Q320 65 353 84T407 137T427 212Q427 253 407 286T353 338T279 358Q239 358 205 339T151 286T130 212Q130 171 150 138T204 85T279 65Z" />
<glyph unicode="7" horiz-adv-x="529" d="M153 -16L77 23Q130 120 183 216T289 409T396 603V603H45V684H485V597Q443 521 402 444T319 291T237 138T153 -16Z" />
<glyph unicode="8" horiz-adv-x="551" d="M276 -16Q210 -16 158 11T75 84T45 188Q45 229 60 261T101 318T159 358V362Q121 385 95 424T68 508Q68 563 94 606T168 674T276 700Q337 700 383 675T456 606T483 508Q483 478 471 451T439 401T393 362V358Q440 335 473
292T507 188Q507 131 477 85T394 11T276 -16ZM276 65Q316 65 348 81T400 126T420 193Q420 231 401 259T349 303T276 319Q236 319 203 303T151 259T131 193Q131 155 150 126T203 81T276 65ZM276 398Q311 398 338 412T381 451T397 510Q397 562 362 590T276 619Q225
619 190 591T154 510Q154 476 170 451T214 412T276 398Z" />
<glyph unicode="9" horiz-adv-x="557" d="M246 -16L178 31Q199 61 220 91T264 151T307 212T350 272L348 274Q332 263 310 257T260 250Q221 250 183 266T114 312T64 382T45 471Q45 532 76 584T161 668T278 700Q330 700 372 681T445 631Q477 599 494 557T512 471Q512
410 486 358T425 253Q380 186 336 119T246 -16ZM278 326Q319 326 352 345T406 398T427 472Q427 514 407 547T353 599T278 619Q238 619 204 600T150 547T130 472Q130 431 150 398T204 346T278 326Z" />
<glyph unicode=":" horiz-adv-x="238" d="M119 388Q92 388 74 406T55 452Q55 479 73 497T119 516Q146 516 164 498T183 452Q183 425 165 407T119 388ZM119 -6Q92 -6 74 12T55 58Q55 84 73 102T119 121Q146 121 164 103T183 58Q183 31 165 13T119 -6Z" />
<glyph unicode=";" horiz-adv-x="246" d="M125 388Q98 388 80 406T61 452Q61 479 79 497T125 516Q152 516 170 498T189 452Q189 425 171 407T125 388ZM92 -110L51 -83L105 0Q89 3 74 18T58 58Q58 84 76 102T122 121Q136 121 147 116T167 103T181 83T186 58Q186
46 182 35T172 12T158 -10L92 -110Z" />
<glyph unicode="&lt;" horiz-adv-x="497" d="M438 56L55 240V302L438 486V408L144 273V269L438 134V56Z" />
<glyph unicode="=" horiz-adv-x="568" d="M61 329V399H507V329H61ZM61 139V209H507V139H61Z" />
<glyph unicode="&gt;" horiz-adv-x="497" d="M59 56V134L352 269V273L59 408V486L442 302V240L59 56Z" />
<glyph unicode="?" horiz-adv-x="504" d="M201 211V259Q201 294 209 319T237 368T288 421Q310 441 327 459T353 497T363 544Q363 591 333 621T246 651Q210 651 185 636T145 598T122 552L44 585Q55 616 80 650T146 708T246 732Q307 732 352 708T423 641T449 544Q449
502 432 469T391 413T351 373Q330 354 316 336T295 298T288 253V211H201ZM245 -6Q218 -6 200 12T181 58Q181 84 199 102T245 121Q271 121 289 103T308 58Q308 31 290 13T245 -6Z" />
<glyph unicode="@" horiz-adv-x="884" d="M444 -82Q361 -82 290 -52T165 31T83 154T53 304Q53 384 82 453T165 576T290 660T444 690Q527 690 597 660T720 577T802 454T831 304Q831 247 815 200T766 124T683 96Q645 96 617 117T572 172Q556 148 534 131T480 105T405
96Q361 96 322 122T260 194T236 300Q236 360 262 406T332 478T426 504Q453 504 476 497T520 475T557 442H561V490H628V229Q628 204 642 180T689 156Q712 156 727 170T750 206T761 255T764 304Q764 371 740 429T671 530T569 598T444 623Q377 623 319 599T217 531T148
429T123 304Q123 237 148 179T217 78T319 10T444 -15Q479 -15 511 -8T571 13L598 -50Q564 -66 525 -74T444 -82ZM430 163Q464 163 494 180T542 227T561 300Q561 342 544 372T498 418T436 434Q403 434 374 418T328 372T310 300Q310 259 325 228T367 180T430 163Z"
/>
<glyph unicode="A" horiz-adv-x="670" d="M15 0L287 716H383L655 0H562L365 535L337 612H333L305 535L108 0H15ZM325 197V277H490L519 197H325ZM131 197L160 277H325V197H131Z" />
<glyph unicode="B" horiz-adv-x="606" d="M80 0V716H337Q392 716 438 692T513 624T542 523Q542 470 515 431T444 372V368Q497 351 531 307T566 203Q566 143 536 98T457 26T351 0H80ZM125 326V407H337Q375 407 402 424T443 468T458 521Q458 548 444 574T404 617T341
635H165V81H356Q394 81 422 99T465 146T480 204Q480 234 465 262T421 308T352 326H125Z" />
<glyph unicode="C" horiz-adv-x="741" d="M416 -16Q337 -16 270 12T152 91T73 210T45 358Q45 438 73 506T151 624T269 703T416 732Q471 732 518 718T606 678T678 615L617 556Q590 589 560 610T494 641T416 651Q339 651 274 615T170 514T131 358Q131 269 170 203T274
101T416 65Q463 65 502 78T575 115T637 172L699 112Q668 75 625 46T529 1T416 -16Z" />
<glyph unicode="D" horiz-adv-x="703" d="M80 0V716H296Q408 716 489 671T614 544T658 358Q658 253 614 173T489 46T296 0H80ZM165 81H296Q380 81 442 113T538 208T572 358Q572 446 538 508T442 602T296 635H165V81Z" />
<glyph unicode="E" horiz-adv-x="551" d="M80 0V716H494V635H165V81H494V0H80ZM125 318V398H462V318H125Z" />
<glyph unicode="F" horiz-adv-x="531" d="M80 0V716H494V635H165V0H80ZM125 310V390H462V310H125Z" />
<glyph unicode="G" horiz-adv-x="789" d="M416 -16Q340 -16 273 12T154 91T74 210T45 358Q45 438 74 506T154 625T272 704T416 732Q495 732 564 704T679 625L619 565Q596 593 564 612T495 641T417 651Q360 651 308 631T217 572T154 479T131 358Q131 291 154 237T218
145T309 86T417 65Q465 65 510 78T592 120T653 194T682 302H418V381H762Q764 368 765 356T767 330V330V330V329Q767 252 741 189T668 80T557 9T416 -16Z" />
<glyph unicode="H" horiz-adv-x="698" d="M80 0V716H165V0H80ZM125 326V407H553V326H125ZM533 0V716H618V0H533Z" />
<glyph unicode="I" horiz-adv-x="245" d="M80 0V716H165V0H80Z" />
<glyph unicode="J" horiz-adv-x="530" d="M247 -16Q169 -16 110 27T26 150L106 183Q126 116 163 91T247 65Q307 65 342 106T377 214V716H462V221Q462 145 435 92T359 12T247 -16Z" />
<glyph unicode="K" horiz-adv-x="626" d="M80 0V716H165V250V0H80ZM516 0L256 372L313 437L619 4V0H516ZM123 161V284L491 716H600V712L123 161Z" />
<glyph unicode="L" horiz-adv-x="509" d="M80 0V716H165V81H478V0H80Z" />
<glyph unicode="M" horiz-adv-x="866" d="M80 0V716H203L431 129H435L663 716H786V0H702V455L706 591H702L468 0H398L164 591H160L164 455V0H80Z" />
<glyph unicode="N" horiz-adv-x="708" d="M80 0V716H184L543 146H547L543 284V716H628V0H540L165 597H161L165 459V0H80Z" />
<glyph unicode="O" horiz-adv-x="824" d="M412 -16Q333 -16 266 13T150 93T73 212T45 358Q45 436 72 503T149 622T266 703T412 732Q491 732 558 703T674 623T751 504T779 358Q779 280 752 213T675 94T558 13T412 -16ZM412 65Q490 65 553 102T655 205T693 358Q693
445 655 511T554 614T412 651Q335 651 271 614T169 511T131 358Q131 272 169 206T271 102T412 65Z" />
<glyph unicode="P" horiz-adv-x="576" d="M80 0V716H321Q381 716 432 689T513 615T544 504Q544 442 514 394T432 319T321 292H125V373H323Q365 373 395 392T441 442T458 504Q458 536 442 566T395 615T323 635H165V0H80Z" />
<glyph unicode="Q" horiz-adv-x="824" d="M412 -16Q333 -16 266 13T150 93T73 212T45 358Q45 436 72 503T149 622T266 703T412 732Q491 732 558 703T674 623T751 504T779 358Q779 280 752 213T675 94T558 13T412 -16ZM636 -45L454 226L520 271L702 -2L636 -45ZM412
65Q489 65 553 102T655 205T693 358Q693 445 655 511T554 614T412 651Q335 651 271 614T169 511T131 358Q131 272 169 206T271 102T412 65Z" />
<glyph unicode="R" horiz-adv-x="586" d="M80 0V716H322Q382 716 432 689T513 615T544 504Q544 466 530 429T487 360T412 311T303 292H125V371H317Q354 371 386 388T438 435T458 504Q458 536 442 566T395 615T323 635H165V0H80ZM253 328L346 333L572 4V0H472L253 328Z" />
<glyph unicode="S" horiz-adv-x="562" d="M280 -16Q228 -16 177 6T87 71T30 178L111 211Q128 149 173 107T282 65Q322 65 355 79T409 122T430 190Q430 226 413 251T360 295T274 333L229 349Q199 360 169 375T113 413T72 467T57 542Q57 594 85 637T162 706T275
732Q342 732 387 708T459 650T495 588L416 554Q410 575 393 597T348 635T276 651Q241 651 211 637T162 599T143 542Q143 497 179 471T276 424L323 408Q355 397 388 381T451 340T498 279T516 191Q516 136 495 97T438 32T362 -4T280 -16Z" />
<glyph unicode="T" horiz-adv-x="538" d="M227 0V665H312V0H227ZM26 635V716H512V635H26Z" />
<glyph unicode="U" horiz-adv-x="653" d="M326 -16Q248 -16 189 19T97 118T63 265V716H148V261Q148 205 168 161T227 91T326 65Q385 65 425 90T485 160T505 261V716H590V265Q590 182 559 119T468 20T326 -16Z" />
<glyph unicode="V" horiz-adv-x="631" d="M268 0L14 716H108L285 197L309 126H313L338 197L523 716H617L355 0H268Z" />
<glyph unicode="W" horiz-adv-x="944" d="M211 0L17 716H111L241 190L253 141H257L272 190L432 716H520L673 190L688 141H692L704 190L833 716H927L734 0H646L494 518L478 574H474L457 518L299 0H211Z" />
<glyph unicode="X" horiz-adv-x="631" d="M32 716H134L314 437H327L613 0H513L318 299H307L32 716ZM18 0L304 437H318L498 716H599L324 299H314L118 0H18Z" />
<glyph unicode="Y" horiz-adv-x="595" d="M257 0V371H342V0H257ZM15 716H114L297 416H301L481 716H580L342 331H257L15 716Z" />
<glyph unicode="Z" horiz-adv-x="572" d="M38 0V89L424 635H54V716H522V627L136 81H526V0H38Z" />
<glyph unicode="[" horiz-adv-x="318" d="M80 -124V792H281V722H157V-54H281V-124H80Z" />
<glyph unicode="\" horiz-adv-x="300" d="M220 0L2 716H80L298 0H220Z" />
<glyph unicode="]" horiz-adv-x="318" d="M37 -124V-54H161V722H37V792H238V-124H37Z" />
<glyph unicode="^" horiz-adv-x="465" d="M12 410L199 716H266L453 410H364L234 634H230L101 410H12Z" />
<glyph unicode="_" horiz-adv-x="476" d="M0 -216V-146H476V-216H0Z" />
<glyph unicode="`" horiz-adv-x="397" d="M168 614L98 736H191L243 614H168Z" />
<glyph unicode="a" horiz-adv-x="531" d="M226 -16Q169 -16 126 6T59 66T34 154Q34 210 63 248T141 306T249 326Q283 326 312 321T362 308T395 293V324Q395 382 354 416T254 450Q212 450 176 432T118 380L54 428Q74 458 104 480T172 514T254 526Q358 526 417 471T476
323V0H395V73H391Q378 51 354 31T298 -3T226 -16ZM234 59Q278 59 314 81T373 140T395 221Q372 237 338 247T262 257Q189 257 155 227T121 153Q121 111 153 85T234 59Z" />
<glyph unicode="b" horiz-adv-x="602" d="M322 -16Q281 -16 247 -3T188 31T148 75H144V0H63V716H148V505L144 434H148Q162 458 187 479T247 513T322 526Q392 526 447 491T534 395T566 255Q566 176 534 115T447 19T322 -16ZM313 61Q357 61 395 84T457 152T481 255Q481
315 458 358T396 425T313 449Q269 449 231 426T168 359T144 255Q144 195 168 152T230 85T313 61Z" />
<glyph unicode="c" horiz-adv-x="546" d="M294 -16Q219 -16 161 19T69 116T36 255Q36 333 69 394T160 490T294 526Q380 526 435 487T514 385L437 353Q418 400 381 424T290 449Q245 449 207 425T144 358T120 255Q120 197 144 153T206 85T290 61Q344 61 383 86T441
157L517 125Q492 66 436 25T294 -16Z" />
<glyph unicode="d" horiz-adv-x="602" d="M280 -16Q211 -16 156 19T68 115T36 255Q36 334 68 395T155 491T280 526Q321 526 355 513T414 479T454 434H458L454 505V716H539V0H458V75H454Q440 52 415 31T355 -3T280 -16ZM289 61Q333 61 371 84T434 151T458 255Q458
315 434 358T372 425T289 449Q245 449 207 426T144 359T120 255Q120 196 144 152T206 85T289 61Z" />
<glyph unicode="e" horiz-adv-x="563" d="M290 -16Q216 -16 159 19T69 115T36 254Q36 327 66 389T152 488T283 526Q359 526 413 493T497 400T527 265Q527 258 527 251T525 239H86V309H437Q436 330 428 354T401 400T354 435T283 449Q233 449 197 424T141 354T121
254Q121 189 146 146T210 82T293 61Q349 61 385 87T444 153L516 118Q486 60 430 22T290 -16Z" />
<glyph unicode="f" horiz-adv-x="379" d="M28 433V510H338V433H28ZM122 0V565Q122 615 144 650T203 705T285 724Q314 724 331 721T360 712V629Q347 634 330 639T288 645Q257 645 232 623T207 556V0H122Z" />
<glyph unicode="g" horiz-adv-x="597" d="M287 -232Q222 -232 176 -211T101 -156T60 -89L138 -56Q154 -98 192 -126T287 -155Q367 -155 410 -109T453 21V78H449Q425 41 380 16T275 -10Q209 -10 155 24T68 118T36 258Q36 337 68 397T154 492T275 526Q335 526 380
501T449 437H453V510H534V20Q534 -65 502 -121T414 -204T287 -232ZM287 67Q332 67 370 89T430 155T453 258Q453 320 431 362T370 427T287 449Q242 449 204 427T143 362T120 258Q120 197 143 155T204 90T287 67Z" />
<glyph unicode="h" horiz-adv-x="564" d="M63 0V716H148V505L144 435H148Q168 473 213 499T314 526Q379 526 421 500T484 430T505 327V0H420V314Q420 363 403 392T357 435T294 449Q252 449 219 425T167 363T148 284V0H63Z" />
<glyph unicode="i" horiz-adv-x="226" d="M71 0V510H156V0H71ZM113 604Q88 604 70 622T52 665Q52 691 70 708T113 726Q139 726 156 709T174 665Q174 640 157 622T113 604Z" />
<glyph unicode="j" horiz-adv-x="226" d="M15 -226Q1 -226 -10 -224T-30 -219V-138Q-22 -142 -10 -145T12 -149Q44 -149 57 -129T71 -72V510H156V-72Q156 -125 139 -159T90 -209T15 -226ZM113 604Q88 604 70 622T52 665Q52 691 70 708T113 726Q139 726 156 709T174
665Q174 640 157 622T113 604Z" />
<glyph unicode="k" horiz-adv-x="505" d="M63 0V716H148V0H63ZM95 104V213L388 510H496V506L95 104ZM400 0L216 274L276 333L502 4V0H400Z" />
<glyph unicode="l" horiz-adv-x="211" d="M63 0V716H148V0H63Z" />
<glyph unicode="m" horiz-adv-x="875" d="M63 0V510H144V435H148Q162 460 186 480T242 513T307 526Q364 526 405 499T464 427Q490 470 534 498T639 526Q730 526 773 471T816 327V0H732V314Q732 388 702 418T617 449Q578 449 548 427T500 368T482 288V0H397V313Q397
387 367 418T283 449Q244 449 214 426T166 366T148 286V0H63Z" />
<glyph unicode="n" horiz-adv-x="561" d="M63 0V510H144V435H148Q168 472 213 499T313 526Q407 526 454 472T502 327V0H417V314Q417 388 382 418T290 449Q248 449 216 426T166 365T148 287V0H63Z" />
<glyph unicode="o" horiz-adv-x="596" d="M298 -16Q221 -16 162 20T70 117T36 255Q36 331 69 392T162 490T298 526Q375 526 434 490T526 392T560 255Q560 179 527 118T434 20T298 -16ZM298 61Q344 61 384 84T450 150T475 255Q475 316 450 359T385 426T298 449Q252
449 211 426T145 360T120 255Q120 194 145 151T211 84T298 61Z" />
<glyph unicode="p" horiz-adv-x="602" d="M63 -216V510H144V434H148Q162 458 187 479T247 513T322 526Q392 526 447 491T534 395T566 255Q566 176 534 115T447 19T322 -16Q261 -16 215 12T148 75H144L148 5V-216H63ZM313 61Q357 61 395 84T457 152T481 255Q481
315 458 358T396 425T313 449Q269 449 231 426T168 359T144 255Q144 195 168 152T230 85T313 61Z" />
<glyph unicode="q" horiz-adv-x="602" d="M454 -216V5L458 75H454Q440 52 415 31T355 -3T280 -16Q211 -16 156 19T68 115T36 255Q36 334 68 395T155 491T280 526Q321 526 355 513T414 479T454 434H458V510H539V-216H454ZM289 61Q333 61 371 84T434 151T458 255Q458
315 434 358T372 425T289 449Q245 449 207 426T144 359T120 255Q120 196 144 152T206 85T289 61Z" />
<glyph unicode="r" horiz-adv-x="375" d="M63 0V510H144V428H148Q158 457 181 478T235 512T296 525Q319 525 332 523T356 515V423Q340 431 322 435T284 439Q247 439 216 418T167 362T148 285V0H63Z" />
<glyph unicode="s" horiz-adv-x="473" d="M241 -16Q184 -16 141 2T69 52T26 121L102 155Q122 109 160 84T247 59Q294 59 325 78T357 134Q357 157 344 172T306 199T245 219L183 235Q147 245 115 263T64 309T44 379Q44 425 71 458T142 508T236 526Q280 526 318 514T386
477T430 416L356 382Q337 420 305 435T234 450Q192 450 161 432T130 381Q130 349 155 333T218 307L292 288Q367 269 405 232T443 140Q443 92 416 57T343 3T241 -16Z" />
<glyph unicode="t" horiz-adv-x="365" d="M28 510H327V433H28V510ZM117 134V654H202V155Q202 115 218 93T273 71Q290 71 304 76T329 88V5Q316 -1 301 -4T259 -8Q195 -8 156 29T117 134Z" />
<glyph unicode="u" horiz-adv-x="561" d="M248 -16Q154 -16 107 39T59 189V510H144V202Q144 126 179 94T266 61Q311 61 344 84T395 145T413 222V510H498V0H417V74H413Q400 50 375 30T317 -3T248 -16Z" />
<glyph unicode="v" horiz-adv-x="514" d="M213 0L7 510H98L256 100H258L418 510H507L299 0H213Z" />
<glyph unicode="w" horiz-adv-x="777" d="M171 0L7 510H95L216 107H217L346 510H433L562 108H563L684 510H770L605 0H519L387 407V407L256 0H171Z" />
<glyph unicode="x" horiz-adv-x="487" d="M13 0L217 293H226L371 510H471L271 229H265L112 0H13ZM17 510H113L271 283H275L474 0H375L223 226H216L17 510Z" />
<glyph unicode="y" horiz-adv-x="523" d="M209 -190Q206 -197 202 -205T197 -216H109Q115 -203 122 -188T139 -150Q145 -137 150 -126T161 -102T177 -68L247 84L266 131L420 510H512L248 -99Q244 -108 236 -127T220 -165T209 -190ZM228 21L12 510H104L264 131H272L228
21Z" />
<glyph unicode="z" horiz-adv-x="487" d="M37 0V73L338 433H46V510H442V437L141 77H450V0H37Z" />
<glyph unicode="{" horiz-adv-x="313" d="M260 -124Q210 -124 173 -104T117 -47T97 39V214Q97 243 88 261T61 289T23 299V369Q44 369 61 378T87 407T97 454V629Q97 678 116 714T173 771T260 792H282V722H261Q224 722 200 697T175 626V451Q175 403 158 376T107
336V332Q141 320 158 293T175 217V42Q175 -3 199 -28T261 -54H282V-124H260Z" />
<glyph unicode="|" horiz-adv-x="237" d="M80 -120V792H157V-120H80Z" />
<glyph unicode="}" horiz-adv-x="313" d="M31 -124V-54H52Q90 -54 114 -29T139 42V217Q139 266 155 293T206 332V336Q172 348 156 375T139 451V626Q139 671 115 696T52 722H31V792H53Q104 792 140 772T196 715T216 629V454Q216 426 226 407T252 379T290 369V299Q269
299 253 290T226 262T216 214V39Q216 -10 197 -46T141 -103T53 -124H31Z" />
<glyph unicode="~" horiz-adv-x="536" d="M379 236Q353 236 321 248T257 273Q229 285 203 294T158 304Q133 304 120 287T104 249H37Q37 290 54 319T99 364T156 380Q184 380 216 369T281 343Q309 331 334 322T378 312Q403 312 417 329T432 367H499Q499 326 482
297T437 252T379 236Z" />
<glyph unicode="&#xa0;" horiz-adv-x="232" />
<glyph unicode="&#xa1;" horiz-adv-x="238" d="M77 -216V27L86 304H151L161 27V-216H77ZM119 398Q92 398 74 416T55 462Q55 489 73 507T119 526Q146 526 164 508T183 462Q183 435 165 417T119 398Z" />
<glyph unicode="&#xa2;" horiz-adv-x="531" d="M286 83Q214 83 158 117T69 209T36 342Q36 417 68 475T157 567T286 601Q343 601 385 582T455 531T499 462L422 430Q403 476 368 501T280 526Q240 526 203 503T143 439T120 342Q120 287 143 246T203 181T280 158Q333
158 370 183T427 254L502 222Q487 185 458 154T386 103T286 83ZM249 0V684H319V0H249Z" />
<glyph unicode="&#xa3;" horiz-adv-x="525" d="M38 0V73Q72 89 94 112T127 165T138 225Q138 262 123 293T89 355T54 421T39 503Q39 555 64 600T136 672T243 700Q302 700 342 678T406 623T440 559L362 527Q352 560 324 589T243 619Q204 619 178 602T137 559T123
503Q123 464 138 433T172 372T206 310T221 238Q221 196 205 156T158 84L162 81H347Q387 81 406 96T435 140L505 111Q493 78 472 53T420 14T347 0H38ZM39 249V320H339V249H39Z" />
<glyph unicode="&#xa4;" horiz-adv-x="611" d="M118 93L68 143L128 201Q111 228 101 259T90 325Q90 360 100 391T128 449L68 508L118 558L177 501Q203 521 236 532T306 544Q342 544 375 533T434 501L493 558L543 508L484 450Q501 423 511 392T521 325Q521 291
511 260T484 201L543 143L493 93L434 150Q408 130 375 118T306 106Q269 106 236 118T177 150L118 93ZM306 180Q344 180 375 199T424 252T443 325Q443 365 425 398T375 450T306 470Q268 470 237 451T187 398T168 325Q168 285 186 252T236 200T306 180Z" />
<glyph unicode="&#xa5;" horiz-adv-x="572" d="M246 0V323L15 684H112L252 452L286 395H290L323 452L460 684H557L330 325V0H246ZM75 169V239H497V169H75ZM75 324V394H497V324H75Z" />
<glyph unicode="&#xa6;" horiz-adv-x="237" d="M80 -120V292H157V-120H80ZM80 376V756H157V376H80Z" />
<glyph unicode="&#xa7;" horiz-adv-x="546" d="M291 -232Q233 -232 183 -211T97 -148T45 -42L124 -10Q135 -49 157 -81T212 -132T284 -151Q341 -151 376 -124T411 -47Q411 -11 396 11T348 51T258 90L229 101Q173 123 137 147T85 204T68 280Q68 329 99 368T183
430L254 391Q227 387 204 374T166 339T151 289Q151 264 163 244T206 205T287 170Q329 156 367 137T434 92T481 33T498 -42Q498 -103 469 -145T393 -210T291 -232ZM397 78L332 115Q368 127 388 145T416 186T424 236Q424 272 403 297T344 340T258 377Q195 401 156
426T99 482T81 552Q81 594 104 635T173 704T285 732Q342 732 384 709T453 651T488 587L410 555Q404 576 388 598T346 635T282 651Q230 651 199 625T167 559Q167 521 195 499T282 456L305 448Q358 430 404 406T480 342T510 240Q510 207 498 176T461 120T397 78Z"
/>
<glyph unicode="&#xa8;" horiz-adv-x="392" d="M278 625Q257 625 241 641T224 679Q224 702 240 717T278 732Q301 732 316 717T332 679Q332 657 317 641T278 625ZM114 625Q92 625 76 641T60 679Q60 702 76 717T114 732Q137 732 152 717T167 679Q167 657 152 641T114 625Z" />
<glyph unicode="&#xa9;" horiz-adv-x="530" d="M265 272Q202 272 150 303T66 386T35 502Q35 565 66 617T149 701T265 732Q328 732 380 701T464 618T495 502Q495 439 464 387T381 303T265 272ZM269 383Q236 383 209 399T167 442T151 502Q151 535 166 562T209 605T269
621Q300 621 320 610T356 582L325 554Q315 566 303 572T269 579Q240 579 218 557T195 502Q195 469 217 447T269 425Q291 425 305 434T330 457L363 431Q347 410 324 397T269 383ZM265 318Q316 318 358 343T425 410T450 502Q450 553 425 594T358 661T265 686Q215
686 173 661T106 595T81 502Q81 452 106 410T173 343T265 318Z" />
<glyph unicode="&#xaa;" horiz-adv-x="474" d="M207 272Q163 272 125 290T64 341T41 419Q41 468 67 500T137 549T230 566Q259 566 283 561T326 549T355 536V552Q355 587 339 611T297 647T241 660Q203 660 177 647T133 603L61 638Q72 661 94 682T153 718T238 732Q291
732 335 711T406 649T433 548V286H355V352H351Q339 330 318 312T269 283T207 272ZM219 342Q244 342 268 351T312 378T343 420T355 472Q353 474 340 481T304 496T247 504Q204 504 177 492T138 460T125 415Q125 378 155 360T219 342Z" />
<glyph unicode="&#xab;" horiz-adv-x="548" d="M239 54L39 271L239 488L289 442L128 271L289 100L239 54ZM439 54L239 271L439 488L489 442L328 271L489 100L439 54Z" />
<glyph unicode="&#xac;" horiz-adv-x="573" d="M418 55V262H55V332H486V55H418Z" />
<glyph unicode="&#xad;" horiz-adv-x="0" />
<glyph unicode="&#xae;" horiz-adv-x="530" d="M265 272Q202 272 150 303T66 386T35 502Q35 565 66 617T149 701T265 732Q328 732 380 701T464 618T495 502Q495 439 464 387T381 303T265 272ZM265 318Q316 318 358 343T425 410T450 502Q450 553 425 594T358 661T265
686Q215 686 173 661T106 595T81 502Q81 452 106 410T173 343T265 318ZM189 389V615H284Q313 615 335 595T357 543Q357 520 343 502T307 478L305 476L365 391V389H315L259 474H233V389H189ZM233 514H280Q293 514 303 522T313 543Q313 554 304 563T281 573H233V514Z"
/>
<glyph unicode="&#xaf;" horiz-adv-x="399" d="M61 645V712H338V645H61Z" />
<glyph unicode="&#xb0;" horiz-adv-x="324" d="M163 442Q127 442 98 459T50 506T32 571Q32 607 50 636T97 683T163 700Q199 700 228 683T274 637T292 571Q292 536 275 507T228 460T163 442ZM163 501Q191 501 210 522T229 571Q229 600 210 620T163 641Q135 641
115 621T95 571Q95 543 115 522T163 501Z" />
<glyph unicode="&#xb1;" horiz-adv-x="544" d="M55 0V70H489V0H55ZM237 142V526H307V142H237ZM55 299V369H489V299H55Z" />
<glyph unicode="&#xb2;" horiz-adv-x="300" d="M25 470V526Q27 528 39 540T70 571T107 608T140 641T160 661Q177 676 190 695T204 737Q204 757 188 771T148 785Q126 785 108 771T83 724L23 749Q34 794 69 819T147 844Q179 844 207 831T252 794T270 737Q270 713
259 692T234 655T208 626Q200 617 186 603T155 572T127 544T111 529H272V470H25Z" />
<glyph unicode="&#xb3;" horiz-adv-x="320" d="M157 462Q112 462 74 485T23 561L83 584Q92 550 113 536T157 521Q183 521 202 537T222 579Q222 604 203 618T158 632Q135 632 126 632T117 632V688Q117 688 124 688T140 688T153 688Q178 688 193 702T209 738Q209
760 193 772T156 785Q128 785 114 770T94 740L37 763Q50 799 80 821T156 844Q209 844 242 815T276 739Q276 714 264 696T230 663Q255 650 271 629T288 579Q288 542 270 516T222 476T157 462Z" />
<glyph unicode="&#xb4;" horiz-adv-x="397" d="M155 614L207 736H300L229 614H155Z" />
<glyph unicode="&#xb5;" horiz-adv-x="626" d="M59 -216V510H144V198Q144 147 159 117T199 74T254 61Q304 61 339 88T394 155T413 235V510H497V146Q497 110 512 91T558 71Q569 71 578 74T599 82V-1Q589 -4 579 -6T553 -8Q489 -8 460 16T420 85H416Q404 63 383
40T332 0T266 -16Q220 -16 189 3T144 54H140L144 5V-216H59Z" />
<glyph unicode="&#xb6;" horiz-adv-x="614" d="M292 -216V296H248Q188 296 137 321T54 393T23 506Q23 572 54 619T136 691T248 716H536V-216H458V635H369V-216H292Z" />
<glyph unicode="&#xb7;" horiz-adv-x="238" d="M119 260Q92 260 74 278T55 324Q55 350 73 368T119 387Q146 387 164 369T183 324Q183 297 165 279T119 260Z" />
<glyph unicode="&#xb8;" horiz-adv-x="403" d="M166 -237Q133 -237 108 -218T72 -170L122 -148Q127 -162 138 -173T166 -184Q186 -184 198 -171T210 -141Q210 -123 198 -110T166 -96Q155 -96 147 -100T131 -113L87 -93L122 0H175L153 -49Q158 -47 163 -47T176
-46Q213 -46 240 -72T267 -141Q267 -167 254 -189T218 -224T166 -237Z" />
<glyph unicode="&#xb9;" horiz-adv-x="235" d="M112 470V752L60 709L23 757L121 836H177V470H112Z" />
<glyph unicode="&#xba;" horiz-adv-x="515" d="M258 272Q194 272 144 302T66 384T37 502Q37 568 65 620T144 702T258 732Q322 732 372 702T450 620T479 502Q479 437 451 385T372 302T258 272ZM258 346Q294 346 325 365T377 420T397 502Q397 549 377 584T326 638T258
658Q222 658 190 639T138 584T118 502Q118 456 138 421T190 366T258 346Z" />
<glyph unicode="&#xbb;" horiz-adv-x="548" d="M109 54L59 100L219 271L59 442L109 488L309 271L109 54ZM309 54L259 100L419 271L259 442L309 488L509 271L309 54Z" />
<glyph unicode="&#xbc;" horiz-adv-x="732" d="M137 350V632L85 589L48 637L146 716H202V350H137ZM153 -7L100 28L566 723L619 687L153 -7ZM391 74V118L567 366H628V0H563V267H559L461 130H677V74H391Z" />
<glyph unicode="&#xbd;" horiz-adv-x="774" d="M137 350V632L85 589L48 637L146 716H202V350H137ZM145 -7L92 28L558 723L611 687L145 -7ZM470 0V56Q472 58 484 70T515 101T552 138T585 171T605 191Q622 206 635 225T649 267Q649 287 633 301T593 315Q571 315
553 301T528 254L468 279Q479 324 514 349T592 374Q624 374 652 361T697 324T715 267Q715 243 704 222T679 185T653 156Q645 147 631 133T600 102T572 74T556 59H717V0H470Z" />
<glyph unicode="&#xbe;" horiz-adv-x="825" d="M182 342Q137 342 99 365T48 441L108 464Q117 430 138 416T182 401Q208 401 227 417T247 459Q247 484 228 498T183 512Q160 512 151 512T142 512V568Q142 568 149 568T165 568T178 568Q203 568 218 582T234 618Q234
640 218 652T181 665Q153 665 139 650T119 620L62 643Q75 679 105 701T181 724Q234 724 267 695T301 619Q301 594 289 576T255 543Q280 530 296 509T313 459Q313 422 295 396T247 356T182 342ZM233 -7L180 28L646 723L699 687L233 -7ZM484 74V118L660 366H721V0H656V267H652L554
130H770V74H484Z" />
<glyph unicode="&#xbf;" horiz-adv-x="504" d="M258 -232Q197 -232 152 -208T81 -140T55 -44Q55 -2 72 31T113 88T152 127Q184 156 200 183T216 247V304H302V241Q302 207 294 181T266 132T215 79Q194 59 177 41T151 3T141 -44Q141 -91 172 -121T258 -151Q295 -151
319 -136T359 -98T381 -52L460 -85Q449 -116 424 -150T358 -208T258 -232ZM259 398Q232 398 214 416T195 462Q195 489 213 507T259 526Q286 526 304 508T323 462Q323 435 305 417T259 398Z" />
<glyph unicode="&#xc0;" horiz-adv-x="670" d="M15 0L287 716H383L655 0H562L365 535L337 612H333L305 535L108 0H15ZM325 197V277H490L519 197H325ZM131 197L160 277H325V197H131ZM298 779L228 901H321L373 779H298Z" />
<glyph unicode="&#xc1;" horiz-adv-x="670" d="M15 0L287 716H383L655 0H562L365 535L337 612H333L305 535L108 0H15ZM325 197V277H490L519 197H325ZM131 197L160 277H325V197H131ZM298 779L350 901H443L372 779H298Z" />
<glyph unicode="&#xc2;" horiz-adv-x="670" d="M15 0L287 716H383L655 0H562L365 535L337 612H333L305 535L108 0H15ZM325 197V277H490L519 197H325ZM131 197L160 277H325V197H131ZM196 779V784L298 901H373L475 784V779H393L339 843H331L278 779H196Z" />
<glyph unicode="&#xc3;" horiz-adv-x="670" d="M15 0L287 716H383L655 0H562L365 535L337 612H333L305 535L108 0H15ZM325 197V277H490L519 197H325ZM131 197L160 277H325V197H131ZM395 780Q375 780 355 789T317 809Q305 817 295 822T275 827Q259 827 250 818T239
790H169Q169 830 186 854T228 888T276 899Q297 899 317 890T354 869Q365 862 375 857T395 852Q411 852 420 861T431 889H501Q501 849 485 825T444 791T395 780Z" />
<glyph unicode="&#xc4;" horiz-adv-x="670" d="M15 0L287 716H383L655 0H562L365 535L337 612H333L305 535L108 0H15ZM325 197V277H490L519 197H325ZM131 197L160 277H325V197H131ZM417 789Q396 789 380 805T363 843Q363 866 379 881T417 896Q440 896 455 881T471
843Q471 821 456 805T417 789ZM253 789Q231 789 215 805T199 843Q199 866 215 881T253 896Q276 896 291 881T306 843Q306 821 291 805T253 789Z" />
<glyph unicode="&#xc5;" horiz-adv-x="670" d="M15 0L287 716H383L655 0H562L365 535L337 612H333L305 535L108 0H15ZM325 197V277H490L519 197H325ZM131 197L160 277H325V197H131ZM335 660Q306 660 283 674T246 712T232 764Q232 793 245 816T282 853T335 867Q364
867 387 853T425 816T439 764Q439 736 425 712T388 674T335 660ZM335 716Q355 716 368 730T382 764Q382 784 369 797T335 811Q316 811 302 798T288 764Q288 744 302 730T335 716Z" />
<glyph unicode="&#xc6;" horiz-adv-x="960" d="M7 0L439 716H903V635H574V81H903V0H489V635H485L456 585L107 0H7ZM185 197L232 277H382V197H185ZM529 197H382V277H529V197ZM534 318V398H871V318H534Z" />
<glyph unicode="&#xc7;" horiz-adv-x="741" d="M416 -16Q337 -16 270 12T152 91T73 210T45 358Q45 438 73 506T151 624T269 703T416 732Q471 732 518 718T606 678T678 615L617 556Q590 589 560 610T494 641T416 651Q339 651 274 615T170 514T131 358Q131 269 170
203T274 101T416 65Q463 65 502 78T575 115T637 172L699 112Q668 75 625 46T529 1T416 -16ZM421 -237Q388 -237 363 -218T327 -170L377 -148Q382 -162 393 -173T421 -184Q441 -184 453 -171T465 -141Q465 -123 453 -110T421 -96Q410 -96 402 -100T386 -113L342
-93L377 0H430L408 -49Q413 -47 418 -47T431 -46Q468 -46 495 -72T522 -141Q522 -167 509 -189T473 -224T421 -237Z" />
<glyph unicode="&#xc8;" horiz-adv-x="551" d="M80 0V716H494V635H165V81H494V0H80ZM125 318V398H462V318H125ZM250 779L180 901H273L325 779H250Z" />
<glyph unicode="&#xc9;" horiz-adv-x="551" d="M80 0V716H494V635H165V81H494V0H80ZM125 318V398H462V318H125ZM250 779L302 901H395L324 779H250Z" />
<glyph unicode="&#xca;" horiz-adv-x="551" d="M80 0V716H494V635H165V81H494V0H80ZM125 318V398H462V318H125ZM148 779V784L250 901H325L427 784V779H345L291 843H283L230 779H148Z" />
<glyph unicode="&#xcb;" horiz-adv-x="551" d="M80 0V716H494V635H165V81H494V0H80ZM125 318V398H462V318H125ZM369 789Q348 789 332 805T315 843Q315 866 331 881T369 896Q392 896 407 881T423 843Q423 821 408 805T369 789ZM205 789Q183 789 167 805T151 843Q151
866 167 881T205 896Q228 896 243 881T258 843Q258 821 243 805T205 789Z" />
<glyph unicode="&#xcc;" horiz-adv-x="245" d="M80 0V716H165V0H80ZM85 779L15 901H108L160 779H85Z" />
<glyph unicode="&#xcd;" horiz-adv-x="245" d="M80 0V716H165V0H80ZM85 779L137 901H230L159 779H85Z" />
<glyph unicode="&#xce;" horiz-adv-x="245" d="M80 0V716H165V0H80ZM-17 779V784L85 901H160L262 784V779H180L126 843H118L65 779H-17Z" />
<glyph unicode="&#xcf;" horiz-adv-x="245" d="M80 0V716H165V0H80ZM56 790Q34 790 18 806T2 844Q2 867 18 882T56 898Q79 898 94 883T110 844Q110 822 95 806T56 790ZM189 790Q167 790 151 806T135 844Q135 867 151 882T189 898Q212 898 227 883T242 844Q242
822 227 806T189 790Z" />
<glyph unicode="&#xd0;" horiz-adv-x="732" d="M109 0V716H325Q437 716 518 671T643 544T687 358Q687 253 643 173T518 46T325 0H109ZM194 81H325Q409 81 471 113T567 208T601 358Q601 446 567 508T471 602T325 635H194V81ZM33 322V392H397V322H33Z" />
<glyph unicode="&#xd1;" horiz-adv-x="708" d="M80 0V716H184L543 146H547L543 284V716H628V0H540L165 597H161L165 459V0H80ZM414 780Q394 780 374 789T336 809Q324 817 314 822T294 827Q278 827 269 818T258 790H188Q188 830 205 854T247 888T295 899Q316 899
336 890T373 869Q384 862 394 857T414 852Q430 852 439 861T450 889H520Q520 849 504 825T463 791T414 780Z" />
<glyph unicode="&#xd2;" horiz-adv-x="824" d="M412 -16Q333 -16 266 13T150 93T73 212T45 358Q45 436 72 503T149 622T266 703T412 732Q491 732 558 703T674 623T751 504T779 358Q779 280 752 213T675 94T558 13T412 -16ZM412 65Q490 65 553 102T655 205T693
358Q693 445 655 511T554 614T412 651Q335 651 271 614T169 511T131 358Q131 272 169 206T271 102T412 65ZM375 779L305 901H398L450 779H375Z" />
<glyph unicode="&#xd3;" horiz-adv-x="824" d="M412 -16Q333 -16 266 13T150 93T73 212T45 358Q45 436 72 503T149 622T266 703T412 732Q491 732 558 703T674 623T751 504T779 358Q779 280 752 213T675 94T558 13T412 -16ZM412 65Q490 65 553 102T655 205T693
358Q693 445 655 511T554 614T412 651Q335 651 271 614T169 511T131 358Q131 272 169 206T271 102T412 65ZM375 779L427 901H520L449 779H375Z" />
<glyph unicode="&#xd4;" horiz-adv-x="824" d="M412 -16Q333 -16 266 13T150 93T73 212T45 358Q45 436 72 503T149 622T266 703T412 732Q491 732 558 703T674 623T751 504T779 358Q779 280 752 213T675 94T558 13T412 -16ZM412 65Q490 65 553 102T655 205T693
358Q693 445 655 511T554 614T412 651Q335 651 271 614T169 511T131 358Q131 272 169 206T271 102T412 65ZM273 779V784L375 901H450L552 784V779H470L416 843H408L355 779H273Z" />
<glyph unicode="&#xd5;" horiz-adv-x="824" d="M412 -16Q333 -16 266 13T150 93T73 212T45 358Q45 436 72 503T149 622T266 703T412 732Q491 732 558 703T674 623T751 504T779 358Q779 280 752 213T675 94T558 13T412 -16ZM412 65Q490 65 553 102T655 205T693
358Q693 445 655 511T554 614T412 651Q335 651 271 614T169 511T131 358Q131 272 169 206T271 102T412 65ZM472 780Q452 780 432 789T394 809Q382 817 372 822T352 827Q336 827 327 818T316 790H246Q246 830 263 854T305 888T353 899Q374 899 394 890T431 869Q442
862 452 857T472 852Q488 852 497 861T508 889H578Q578 849 562 825T521 791T472 780Z" />
<glyph unicode="&#xd6;" horiz-adv-x="824" d="M412 -16Q333 -16 266 13T150 93T73 212T45 358Q45 436 72 503T149 622T266 703T412 732Q491 732 558 703T674 623T751 504T779 358Q779 280 752 213T675 94T558 13T412 -16ZM412 65Q490 65 553 102T655 205T693
358Q693 445 655 511T554 614T412 651Q335 651 271 614T169 511T131 358Q131 272 169 206T271 102T412 65ZM494 789Q473 789 457 805T440 843Q440 866 456 881T494 896Q517 896 532 881T548 843Q548 821 533 805T494 789ZM330 789Q308 789 292 805T276 843Q276
866 292 881T330 896Q353 896 368 881T383 843Q383 821 368 805T330 789Z" />
<glyph unicode="&#xd7;" horiz-adv-x="546" d="M66 116L433 473L480 426L113 69L66 116ZM66 426L113 473L480 116L433 69L66 426Z" />
<glyph unicode="&#xd8;" horiz-adv-x="824" d="M412 -16Q333 -16 266 13T150 93T73 212T45 358Q45 436 72 503T149 622T266 703T412 732Q491 732 558 703T674 623T751 504T779 358Q779 280 752 213T675 94T558 13T412 -16ZM412 65Q490 65 553 102T655 205T693
358Q693 445 655 511T554 614T412 651Q335 651 271 614T169 511T131 358Q131 272 169 206T271 102T412 65ZM208 -36L150 1L618 753L676 715L208 -36Z" />
<glyph unicode="&#xd9;" horiz-adv-x="653" d="M326 -16Q248 -16 189 19T97 118T63 265V716H148V261Q148 205 168 161T227 91T326 65Q385 65 425 90T485 160T505 261V716H590V265Q590 182 559 119T468 20T326 -16ZM289 779L219 901H312L364 779H289Z" />
<glyph unicode="&#xda;" horiz-adv-x="653" d="M326 -16Q248 -16 189 19T97 118T63 265V716H148V261Q148 205 168 161T227 91T326 65Q385 65 425 90T485 160T505 261V716H590V265Q590 182 559 119T468 20T326 -16ZM289 779L341 901H434L363 779H289Z" />
<glyph unicode="&#xdb;" horiz-adv-x="653" d="M326 -16Q248 -16 189 19T97 118T63 265V716H148V261Q148 205 168 161T227 91T326 65Q385 65 425 90T485 160T505 261V716H590V265Q590 182 559 119T468 20T326 -16ZM187 779V784L289 901H364L466 784V779H384L330
843H322L269 779H187Z" />
<glyph unicode="&#xdc;" horiz-adv-x="653" d="M326 -16Q248 -16 189 19T97 118T63 265V716H148V261Q148 205 168 161T227 91T326 65Q385 65 425 90T485 160T505 261V716H590V265Q590 182 559 119T468 20T326 -16ZM408 789Q387 789 371 805T354 843Q354 866 370
881T408 896Q431 896 446 881T462 843Q462 821 447 805T408 789ZM244 789Q222 789 206 805T190 843Q190 866 206 881T244 896Q267 896 282 881T297 843Q297 821 282 805T244 789Z" />
<glyph unicode="&#xdd;" horiz-adv-x="595" d="M257 0V371H342V0H257ZM15 716H114L297 416H301L481 716H580L342 331H257L15 716ZM260 779L312 901H405L334 779H260Z" />
<glyph unicode="&#xde;" horiz-adv-x="576" d="M80 0V716H165V0H80ZM125 169V250H323Q365 250 395 269T441 319T458 381Q458 413 442 443T395 492T323 512H125V593H321Q381 593 432 566T513 492T544 381Q544 319 514 271T432 196T321 169H125Z" />
<glyph unicode="&#xdf;" horiz-adv-x="571" d="M304 -8Q294 -8 279 -7T249 -3V77Q265 75 279 74T304 73Q344 73 376 91T426 139T445 209Q445 247 425 277T370 326T296 344H257V422H284Q325 422 354 437T398 479T413 540Q413 591 377 621T291 651Q231 651 198 614T165
516V0H79V516Q79 578 103 626T175 703T291 732Q352 732 398 707T472 639T499 540Q499 500 487 471T455 422T410 389V385Q443 372 470 349T514 290T531 209Q531 146 502 97T421 20T304 -8Z" />
<glyph unicode="&#xe0;" horiz-adv-x="531" d="M226 -16Q169 -16 126 6T59 66T34 154Q34 210 63 248T141 306T249 326Q283 326 312 321T362 308T395 293V324Q395 382 354 416T254 450Q212 450 176 432T118 380L54 428Q74 458 104 480T172 514T254 526Q358 526
417 471T476 323V0H395V73H391Q378 51 354 31T298 -3T226 -16ZM234 59Q278 59 314 81T373 140T395 221Q372 237 338 247T262 257Q189 257 155 227T121 153Q121 111 153 85T234 59ZM222 614L152 736H245L297 614H222Z" />
<glyph unicode="&#xe1;" horiz-adv-x="531" d="M226 -16Q169 -16 126 6T59 66T34 154Q34 210 63 248T141 306T249 326Q283 326 312 321T362 308T395 293V324Q395 382 354 416T254 450Q212 450 176 432T118 380L54 428Q74 458 104 480T172 514T254 526Q358 526
417 471T476 323V0H395V73H391Q378 51 354 31T298 -3T226 -16ZM234 59Q278 59 314 81T373 140T395 221Q372 237 338 247T262 257Q189 257 155 227T121 153Q121 111 153 85T234 59ZM222 614L274 736H367L296 614H222Z" />
<glyph unicode="&#xe2;" horiz-adv-x="531" d="M226 -16Q169 -16 126 6T59 66T34 154Q34 210 63 248T141 306T249 326Q283 326 312 321T362 308T395 293V324Q395 382 354 416T254 450Q212 450 176 432T118 380L54 428Q74 458 104 480T172 514T254 526Q358 526
417 471T476 323V0H395V73H391Q378 51 354 31T298 -3T226 -16ZM234 59Q278 59 314 81T373 140T395 221Q372 237 338 247T262 257Q189 257 155 227T121 153Q121 111 153 85T234 59ZM120 614V619L222 736H297L399 619V614H317L263 678H255L202 614H120Z" />
<glyph unicode="&#xe3;" horiz-adv-x="531" d="M226 -16Q169 -16 126 6T59 66T34 154Q34 210 63 248T141 306T249 326Q283 326 312 321T362 308T395 293V324Q395 382 354 416T254 450Q212 450 176 432T118 380L54 428Q74 458 104 480T172 514T254 526Q358 526
417 471T476 323V0H395V73H391Q378 51 354 31T298 -3T226 -16ZM234 59Q278 59 314 81T373 140T395 221Q372 237 338 247T262 257Q189 257 155 227T121 153Q121 111 153 85T234 59ZM319 620Q299 620 279 629T241 649Q229 657 219 662T199 667Q183 667 174 658T163
630H93Q93 670 110 694T152 728T200 739Q221 739 241 730T278 709Q289 702 299 697T319 692Q335 692 344 701T355 729H425Q425 689 409 665T368 631T319 620Z" />
<glyph unicode="&#xe4;" horiz-adv-x="531" d="M226 -16Q169 -16 126 6T59 66T34 154Q34 210 63 248T141 306T249 326Q283 326 312 321T362 308T395 293V324Q395 382 354 416T254 450Q212 450 176 432T118 380L54 428Q74 458 104 480T172 514T254 526Q358 526
417 471T476 323V0H395V73H391Q378 51 354 31T298 -3T226 -16ZM234 59Q278 59 314 81T373 140T395 221Q372 237 338 247T262 257Q189 257 155 227T121 153Q121 111 153 85T234 59ZM341 625Q320 625 304 641T287 679Q287 702 303 717T341 732Q364 732 379 717T395
679Q395 657 380 641T341 625ZM177 625Q155 625 139 641T123 679Q123 702 139 717T177 732Q200 732 215 717T230 679Q230 657 215 641T177 625Z" />
<glyph unicode="&#xe5;" horiz-adv-x="531" d="M226 -16Q169 -16 126 6T59 66T34 154Q34 210 63 248T141 306T249 326Q283 326 312 321T362 308T395 293V324Q395 382 354 416T254 450Q212 450 176 432T118 380L54 428Q74 458 104 480T172 514T254 526Q358 526
417 471T476 323V0H395V73H391Q378 51 354 31T298 -3T226 -16ZM234 59Q278 59 314 81T373 140T395 221Q372 237 338 247T262 257Q189 257 155 227T121 153Q121 111 153 85T234 59ZM259 588Q230 588 207 602T170 640T156 692Q156 721 169 744T206 781T259 795Q288
795 311 781T349 744T363 692Q363 664 349 640T312 602T259 588ZM259 644Q279 644 292 658T306 692Q306 712 293 725T259 739Q240 739 226 726T212 692Q212 672 226 658T259 644Z" />
<glyph unicode="&#xe6;" horiz-adv-x="919" d="M226 -16Q169 -16 126 6T59 66T34 154Q34 210 63 248T141 306T249 326Q283 326 312 321T362 308T395 293V324Q395 382 357 416T259 450Q216 450 186 430T138 377L66 413Q81 447 109 472T175 512T257 526Q328 526
376 499T450 425Q481 471 528 498T639 525Q715 525 769 492T853 400T883 265Q883 258 883 251T881 239H434V309H793Q792 330 784 354T757 400T710 434T639 448Q598 448 561 428T500 367T476 260Q476 189 501 145T567 81T650 61Q706 61 742 87T800 153L873 118Q842
60 786 22T646 -16Q571 -16 516 19T432 112Q395 47 344 16T226 -16ZM234 59Q278 59 314 81T373 140T395 221Q376 234 341 245T262 257Q189 257 155 227T121 153Q121 111 153 85T234 59Z" />
<glyph unicode="&#xe7;" horiz-adv-x="546" d="M294 -16Q219 -16 161 19T69 116T36 255Q36 333 69 394T160 490T294 526Q380 526 435 487T514 385L437 353Q418 400 381 424T290 449Q245 449 207 425T144 358T120 255Q120 197 144 153T206 85T290 61Q344 61 383
86T441 157L517 125Q492 66 436 25T294 -16ZM295 -237Q262 -237 237 -218T201 -170L251 -148Q256 -162 267 -173T295 -184Q315 -184 327 -171T339 -141Q339 -123 327 -110T295 -96Q284 -96 276 -100T260 -113L216 -93L251 0H304L282 -49Q287 -47 292 -47T305 -46Q342
-46 369 -72T396 -141Q396 -167 383 -189T347 -224T295 -237Z" />
<glyph unicode="&#xe8;" horiz-adv-x="563" d="M290 -16Q216 -16 159 19T69 115T36 254Q36 327 66 389T152 488T283 526Q359 526 413 493T497 400T527 265Q527 258 527 251T525 239H86V309H437Q436 330 428 354T401 400T354 435T283 449Q233 449 197 424T141 354T121
254Q121 189 146 146T210 82T293 61Q349 61 385 87T444 153L516 118Q486 60 430 22T290 -16ZM247 614L177 736H270L322 614H247Z" />
<glyph unicode="&#xe9;" horiz-adv-x="563" d="M290 -16Q216 -16 159 19T69 115T36 254Q36 327 66 389T152 488T283 526Q359 526 413 493T497 400T527 265Q527 258 527 251T525 239H86V309H437Q436 330 428 354T401 400T354 435T283 449Q233 449 197 424T141 354T121
254Q121 189 146 146T210 82T293 61Q349 61 385 87T444 153L516 118Q486 60 430 22T290 -16ZM247 614L299 736H392L321 614H247Z" />
<glyph unicode="&#xea;" horiz-adv-x="563" d="M290 -16Q216 -16 159 19T69 115T36 254Q36 327 66 389T152 488T283 526Q359 526 413 493T497 400T527 265Q527 258 527 251T525 239H86V309H437Q436 330 428 354T401 400T354 435T283 449Q233 449 197 424T141 354T121
254Q121 189 146 146T210 82T293 61Q349 61 385 87T444 153L516 118Q486 60 430 22T290 -16ZM145 614V619L247 736H322L424 619V614H342L288 678H280L227 614H145Z" />
<glyph unicode="&#xeb;" horiz-adv-x="563" d="M290 -16Q216 -16 159 19T69 115T36 254Q36 327 66 389T152 488T283 526Q359 526 413 493T497 400T527 265Q527 258 527 251T525 239H86V309H437Q436 330 428 354T401 400T354 435T283 449Q233 449 197 424T141 354T121
254Q121 189 146 146T210 82T293 61Q349 61 385 87T444 153L516 118Q486 60 430 22T290 -16ZM366 625Q345 625 329 641T312 679Q312 702 328 717T366 732Q389 732 404 717T420 679Q420 657 405 641T366 625ZM202 625Q180 625 164 641T148 679Q148 702 164 717T202
732Q225 732 240 717T255 679Q255 657 240 641T202 625Z" />
<glyph unicode="&#xec;" horiz-adv-x="226" d="M71 0V510H156V0H71ZM333 614L263 736H356L408 614H333Z" />
<glyph unicode="&#xed;" horiz-adv-x="226" d="M71 0V510H156V0H71ZM333 614L385 736H478L407 614H333Z" />
<glyph unicode="&#xee;" horiz-adv-x="226" d="M71 0V510H156V0H71ZM231 614V619L333 736H408L510 619V614H428L374 678H366L313 614H231Z" />
<glyph unicode="&#xef;" horiz-adv-x="226" d="M71 0V510H156V0H71ZM170 635Q151 635 136 650T121 684Q121 705 136 718T170 732Q191 732 204 719T218 684Q218 665 205 650T170 635ZM57 635Q38 635 23 650T8 684Q8 705 23 718T57 732Q78 732 91 719T105 684Q105
665 92 650T57 635Z" />
<glyph unicode="&#xf0;" horiz-adv-x="588" d="M293 -16Q225 -16 169 19T79 112T46 240Q46 314 80 370T169 459T287 491Q339 491 374 472T424 435L429 438Q416 478 386 514T317 579T234 629T148 658L176 730Q216 719 264 698T361 641T451 554T517 429T542 260Q542
179 511 117T423 19T293 -16ZM293 65Q339 65 375 87T433 148T455 239Q455 290 434 329T376 391T295 413Q250 413 213 391T154 330T132 239Q132 188 153 149T211 87T293 65ZM201 513L175 575L448 696L474 634L201 513Z" />
<glyph unicode="&#xf1;" horiz-adv-x="561" d="M63 0V510H144V435H148Q168 472 213 499T313 526Q407 526 454 472T502 327V0H417V314Q417 388 382 418T290 449Q248 449 216 426T166 365T148 287V0H63ZM353 620Q333 620 313 629T275 649Q263 657 253 662T233 667Q217
667 208 658T197 630H127Q127 670 144 694T186 728T234 739Q255 739 275 730T312 709Q323 702 333 697T353 692Q369 692 378 701T389 729H459Q459 689 443 665T402 631T353 620Z" />
<glyph unicode="&#xf2;" horiz-adv-x="596" d="M298 -16Q221 -16 162 20T70 117T36 255Q36 331 69 392T162 490T298 526Q375 526 434 490T526 392T560 255Q560 179 527 118T434 20T298 -16ZM298 61Q344 61 384 84T450 150T475 255Q475 316 450 359T385 426T298
449Q252 449 211 426T145 360T120 255Q120 194 145 151T211 84T298 61ZM261 614L191 736H284L336 614H261Z" />
<glyph unicode="&#xf3;" horiz-adv-x="596" d="M298 -16Q221 -16 162 20T70 117T36 255Q36 331 69 392T162 490T298 526Q375 526 434 490T526 392T560 255Q560 179 527 118T434 20T298 -16ZM298 61Q344 61 384 84T450 150T475 255Q475 316 450 359T385 426T298
449Q252 449 211 426T145 360T120 255Q120 194 145 151T211 84T298 61ZM261 614L313 736H406L335 614H261Z" />
<glyph unicode="&#xf4;" horiz-adv-x="596" d="M298 -16Q221 -16 162 20T70 117T36 255Q36 331 69 392T162 490T298 526Q375 526 434 490T526 392T560 255Q560 179 527 118T434 20T298 -16ZM298 61Q344 61 384 84T450 150T475 255Q475 316 450 359T385 426T298
449Q252 449 211 426T145 360T120 255Q120 194 145 151T211 84T298 61ZM159 614V619L261 736H336L438 619V614H356L302 678H294L241 614H159Z" />
<glyph unicode="&#xf5;" horiz-adv-x="596" d="M298 -16Q221 -16 162 20T70 117T36 255Q36 331 69 392T162 490T298 526Q375 526 434 490T526 392T560 255Q560 179 527 118T434 20T298 -16ZM298 61Q344 61 384 84T450 150T475 255Q475 316 450 359T385 426T298
449Q252 449 211 426T145 360T120 255Q120 194 145 151T211 84T298 61ZM358 620Q338 620 318 629T280 649Q268 657 258 662T238 667Q222 667 213 658T202 630H132Q132 670 149 694T191 728T239 739Q260 739 280 730T317 709Q328 702 338 697T358 692Q374 692 383
701T394 729H464Q464 689 448 665T407 631T358 620Z" />
<glyph unicode="&#xf6;" horiz-adv-x="596" d="M298 -16Q221 -16 162 20T70 117T36 255Q36 331 69 392T162 490T298 526Q375 526 434 490T526 392T560 255Q560 179 527 118T434 20T298 -16ZM298 61Q344 61 384 84T450 150T475 255Q475 316 450 359T385 426T298
449Q252 449 211 426T145 360T120 255Q120 194 145 151T211 84T298 61ZM380 625Q359 625 343 641T326 679Q326 702 342 717T380 732Q403 732 418 717T434 679Q434 657 419 641T380 625ZM216 625Q194 625 178 641T162 679Q162 702 178 717T216 732Q239 732 254 717T269
679Q269 657 254 641T216 625Z" />
<glyph unicode="&#xf7;" horiz-adv-x="544" d="M55 236V306H489V236H55ZM272 20Q245 20 227 38T208 84Q208 110 226 128T272 147Q299 147 317 129T336 84Q336 57 318 39T272 20ZM272 395Q245 395 227 413T208 458Q208 485 226 503T272 522Q299 522 317 504T336
458Q336 432 318 414T272 395Z" />
<glyph unicode="&#xf8;" horiz-adv-x="596" d="M298 -16Q221 -16 162 20T70 117T36 255Q36 331 69 392T162 490T298 526Q375 526 434 490T526 392T560 255Q560 179 527 118T434 20T298 -16ZM298 61Q344 61 384 84T450 150T475 255Q475 316 450 359T385 426T298
449Q252 449 211 426T145 360T120 255Q120 194 145 151T211 84T298 61ZM157 -32L102 -1L441 543L495 511L157 -32Z" />
<glyph unicode="&#xf9;" horiz-adv-x="561" d="M248 -16Q154 -16 107 39T59 189V510H144V202Q144 126 179 94T266 61Q311 61 344 84T395 145T413 222V510H498V0H417V74H413Q400 50 375 30T317 -3T248 -16ZM241 614L171 736H264L316 614H241Z" />
<glyph unicode="&#xfa;" horiz-adv-x="561" d="M248 -16Q154 -16 107 39T59 189V510H144V202Q144 126 179 94T266 61Q311 61 344 84T395 145T413 222V510H498V0H417V74H413Q400 50 375 30T317 -3T248 -16ZM241 614L293 736H386L315 614H241Z" />
<glyph unicode="&#xfb;" horiz-adv-x="561" d="M248 -16Q154 -16 107 39T59 189V510H144V202Q144 126 179 94T266 61Q311 61 344 84T395 145T413 222V510H498V0H417V74H413Q400 50 375 30T317 -3T248 -16ZM139 614V619L241 736H316L418 619V614H336L282 678H274L221
614H139Z" />
<glyph unicode="&#xfc;" horiz-adv-x="561" d="M248 -16Q154 -16 107 39T59 189V510H144V202Q144 126 179 94T266 61Q311 61 344 84T395 145T413 222V510H498V0H417V74H413Q400 50 375 30T317 -3T248 -16ZM360 625Q339 625 323 641T306 679Q306 702 322 717T360
732Q383 732 398 717T414 679Q414 657 399 641T360 625ZM196 625Q174 625 158 641T142 679Q142 702 158 717T196 732Q219 732 234 717T249 679Q249 657 234 641T196 625Z" />
<glyph unicode="&#xfd;" horiz-adv-x="523" d="M209 -190Q206 -197 202 -205T197 -216H109Q115 -203 122 -188T139 -150Q145 -137 150 -126T161 -102T177 -68L247 84L266 131L420 510H512L248 -99Q244 -108 236 -127T220 -165T209 -190ZM228 21L12 510H104L264
131H272L228 21ZM221 614L273 736H366L295 614H221Z" />
<glyph unicode="&#xfe;" horiz-adv-x="599" d="M60 -216V716H145V502L141 434H145Q167 470 212 498T319 526Q389 526 444 491T531 395T563 255Q563 176 531 115T444 19T319 -16Q258 -16 213 12T145 75H141L145 7V-216H60ZM310 61Q354 61 392 84T455 152T479 255Q479
315 455 358T393 425T310 449Q266 449 228 426T165 359T141 255Q141 195 165 152T227 85T310 61Z" />
<glyph unicode="&#xff;" horiz-adv-x="523" d="M209 -190Q206 -197 202 -205T197 -216H109Q115 -203 122 -188T139 -150Q145 -137 150 -126T161 -102T177 -68L247 84L266 131L420 510H512L248 -99Q244 -108 236 -127T220 -165T209 -190ZM228 21L12 510H104L264
131H272L228 21ZM340 625Q319 625 303 641T286 679Q286 702 302 717T340 732Q363 732 378 717T394 679Q394 657 379 641T340 625ZM176 625Q154 625 138 641T122 679Q122 702 138 717T176 732Q199 732 214 717T229 679Q229 657 214 641T176 625Z" />
<glyph unicode="&#x2013;" horiz-adv-x="600" d="M62 275V345H538V275H62Z" />
<glyph unicode="&#x2014;" horiz-adv-x="900" d="M62 275V345H838V275H62Z" />
<glyph unicode="&#x2018;" horiz-adv-x="224" d="M137 732L177 706L128 631Q145 628 159 614T174 574Q174 547 156 529T111 510Q98 510 86 515T66 528T52 549T47 574Q47 586 50 597T60 620T74 641L137 732Z" />
<glyph unicode="&#x2019;" horiz-adv-x="224" d="M47 536L100 611Q81 615 66 629T50 668Q50 695 68 713T113 732Q127 732 138 727T158 714T172 694T177 668Q177 656 173 645T163 623T150 601L87 510L47 536Z" />
<glyph unicode="&#x201a;" horiz-adv-x="224" d="M47 -75L100 0Q81 4 66 18T50 57Q50 84 68 102T113 121Q127 121 138 116T158 103T172 83T177 57Q177 45 173 34T163 12T150 -10L87 -101L47 -75Z" />
<glyph unicode="&#x201c;" horiz-adv-x="393" d="M137 732L177 706L128 631Q145 628 159 614T174 574Q174 547 156 529T111 510Q98 510 86 515T66 528T52 549T47 574Q47 586 50 597T60 620T74 641L137 732ZM306 732L346 706L297 631Q314 628 328 614T343 574Q343
547 325 529T280 510Q267 510 255 515T235 528T221 549T216 574Q216 586 219 597T229 620T243 641L306 732Z" />
<glyph unicode="&#x201d;" horiz-adv-x="393" d="M47 536L100 611Q81 615 66 629T50 668Q50 695 68 713T113 732Q127 732 138 727T158 714T172 694T177 668Q177 656 173 645T163 623T150 601L87 510L47 536ZM216 536L269 611Q250 615 235 629T219 668Q219 695
237 713T282 732Q296 732 307 727T327 714T341 694T346 668Q346 656 342 645T332 623T319 601L256 510L216 536Z" />
<glyph unicode="&#x201e;" horiz-adv-x="393" d="M47 -75L100 0Q81 4 66 18T50 57Q50 84 68 102T113 121Q127 121 138 116T158 103T172 83T177 57Q177 45 173 34T163 12T150 -10L87 -101L47 -75ZM216 -75L269 0Q250 4 235 18T219 57Q219 84 237 102T282 121Q296
121 307 116T327 103T341 83T346 57Q346 45 342 34T332 12T319 -10L256 -101L216 -75Z" />
<glyph unicode="&#x2022;" horiz-adv-x="381" d="M191 211Q160 211 135 226T94 267T78 324Q78 355 93 380T134 421T191 437Q222 437 247 422T287 381T303 324Q303 293 288 268T247 227T191 211Z" />
<glyph unicode="&#x2039;" horiz-adv-x="348" d="M239 54L39 271L239 488L289 442L128 271L289 100L239 54Z" />
<glyph unicode="&#x203a;" horiz-adv-x="348" d="M109 54L59 100L219 271L59 442L109 488L309 271L109 54Z" />
</font>
</defs>
</svg>
