<svg xmlns="http://www.w3.org/2000/svg" viewBox="0 0 32 21.4"><path fill="none" d="M0-5.3h32v32H0z"/><path d="M30.9 1.3C30.2.5 29.1 0 28 0H4.1C3 0 2 .5 1.2 1.3.4 2.1 0 3.2 0 4.3v12.8c0 1.1.4 2.2 1.2 3 .8.9 1.8 1.3 2.9 1.3h5.7c.8 0 1.5-.2 2.2-.6.6-.4 1.2-1 1.5-1.7l1.6-3.1c.2-.4.5-.6.9-.6s.8.2.9.6l1.6 3.1c.3.7.9 1.2 1.5 1.6.6.4 1.4.6 2.1.6h5.7c1.1 0 2.1-.5 2.9-1.3.8-.8 1.2-1.9 1.2-3V4.3c.1-1.1-.2-2.2-1-3zM8.8 14c-1.8 0-3.2-1.5-3.2-3.3 0-1.8 1.5-3.2 3.3-3.2 1.8 0 3.2 1.5 3.2 3.3-.1 1.7-1.5 3.2-3.3 3.2zm14.6 0c-1.8 0-3.3-1.4-3.3-3.2 0-1.8 1.4-3.3 3.2-3.3 1.8 0 3.3 1.4 3.3 3.2 0 1.8-1.4 3.3-3.2 3.3z"/></svg>