<svg xmlns="http://www.w3.org/2000/svg" viewBox="0 0 64 64">
<polygon fill="#00acc8" points="49.28 35.59 46.83 30.08 51.03 21 46.76 21 44.76 25.44 42.79 21 38.51 21 42.69 30.07 42.69 30.07 42.69 30.07 40.22 35.59 33.73 20.99 29.46 20.99 40.23 44.37 44.76 34.55 49.28 44.37 60.09 20.99 55.81 20.99 49.28 35.59" />
<path fill="#8c969a" d="M9,40.5a11.13,11.13,0,0,1-3.45-8.29A11.12,11.12,0,0,1,9,23.92a11.53,11.53,0,0,1,8.42-3.39,11.49,11.49,0,0,1,8.41,3.39,11,11,0,0,1,3.49,8.29,11.1,11.1,0,0,1-3.46,8.29,11.7,11.7,0,0,1-8.45,3.35A11.61,11.61,0,0,1,9,40.5Zm2.78-2.58a7.67,7.67,0,0,0,5.64,2.29A7.68,7.68,0,0,0,23,37.92,8.26,8.26,0,0,0,23,26.5a7.51,7.51,0,0,0-5.62-2.33,7.61,7.61,0,0,0-5.64,2.33A7.8,7.8,0,0,0,9.5,32.21,7.72,7.72,0,0,0,11.76,37.92Z"/>
</svg>
